<?xml version="1.0" standalone="no"?>
<!DOCTYPE svg PUBLIC "-//W3C//DTD SVG 1.1//EN" "http://www.w3.org/Graphics/SVG/1.1/DTD/svg11.dtd">
<svg xmlns="http://www.w3.org/2000/svg" xmlns:xlink="http://www.w3.org/1999/xlink" version="1.1" width="7.4089684cm" height="7.2140236cm" viewBox="0 0 210.018 204.492">
<path transform="matrix(1,0,0,-1,34.215,170.27701)" stroke-width=".3985" stroke-linecap="butt" stroke-miterlimit="10" stroke-linejoin="miter" fill="none" stroke="rgb(0,0,0)" d="M -33.61757 0 L 169.6819 0 "/>
<path transform="matrix(-1,0,0,1,.39818192,170.27701)" stroke-width=".3985" stroke-linecap="round" stroke-linejoin="round" fill="none" stroke="rgb(0,0,0)" d="M -2.07224 2.39104 C -1.69365 .95639 -.84999 .27895 0 0 C -.84999 -.27895 -1.69365 -.95639 -2.07224 -2.39104 "/>
<path transform="matrix(1,0,0,-1,204.09616,170.27701)" stroke-width=".3985" stroke-linecap="round" stroke-linejoin="round" fill="none" stroke="rgb(0,0,0)" d="M -2.07224 2.39104 C -1.69365 .95639 -.84999 .27895 0 0 C -.84999 -.27895 -1.69365 -.95639 -2.07224 -2.39104 "/>
<path transform="matrix(1,0,0,-1,34.215,170.27701)" stroke-width=".3985" stroke-linecap="butt" stroke-miterlimit="10" stroke-linejoin="miter" fill="none" stroke="rgb(0,0,0)" d="M 0 -33.61757 L 0 169.6819 "/>
<path transform="matrix(0,1,1,0,34.215,204.09383)" stroke-width=".3985" stroke-linecap="round" stroke-linejoin="round" fill="none" stroke="rgb(0,0,0)" d="M -2.07224 2.39104 C -1.69365 .95639 -.84999 .27895 0 0 C -.84999 -.27895 -1.69365 -.95639 -2.07224 -2.39104 "/>
<path transform="matrix(0,-1,-1,0,34.215,.3958435)" stroke-width=".3985" stroke-linecap="round" stroke-linejoin="round" fill="none" stroke="rgb(0,0,0)" d="M -2.07224 2.39104 C -1.69365 .95639 -.84999 .27895 0 0 C -.84999 -.27895 -1.69365 -.95639 -2.07224 -2.39104 "/>
<path transform="matrix(1,0,0,-1,34.215,170.27701)" stroke-width="5.97766" stroke-linecap="butt" stroke-miterlimit="10" stroke-linejoin="miter" fill="none" stroke="rgb(204,204,204)" d="M 0 0 L 63.39835 126.79688 "/>
<path transform="matrix(.44722,-.89442,-.89442,-.44722,97.61335,43.480125)" d="M 10.36136 0 L -6.21681 8.28908 L 0 0 L -6.21681 -8.28908 " fill="rgb(204,204,204)"/>
<path transform="matrix(1,0,0,-1,34.215,170.27701)" stroke-width="1.99255" stroke-linecap="butt" stroke-miterlimit="10" stroke-linejoin="miter" fill="none" stroke="rgb(255,0,0)" d="M 0 0 L 32.05563 64.11133 "/>
<path transform="matrix(.44722,-.89442,-.89442,-.44722,66.27063,106.16568)" d="M 4.38364 0 L -2.6301699 3.50691 L 0 0 L -2.6301699 -3.50691 " fill="rgb(255,0,0)"/>
<path transform="matrix(1,0,0,-1,34.215,170.27701)" stroke-width="1.99255" stroke-linecap="butt" stroke-miterlimit="10" stroke-linejoin="miter" fill="none" stroke="rgb(0,0,255)" d="M 0 0 L 132.54056 99.40533 "/>
<path transform="matrix(.80385,-.6029,-.6029,-.80385,166.75554,70.87169)" d="M 4.38364 0 L -2.6301699 3.50691 L 0 0 L -2.6301699 -3.50691 " fill="rgb(0,0,255)"/>
<path transform="matrix(1,0,0,-1,34.215,170.27701)" stroke-width="1.99255" stroke-linecap="butt" stroke-miterlimit="10" stroke-linejoin="miter" fill="none" stroke="rgb(0,0,0)" d="M 68.03217 136.06433 L 132.1435 104.0087 "/>
<path transform="matrix(.89442,.44722,.44722,-.89442,166.35849,66.26831)" d="M 4.38364 0 L -2.6301699 3.50691 L 0 0 L -2.6301699 -3.50691 "/>
<text fill-opacity="0" transform="matrix(1,0,-0,1,.0000038146973,204.492)" font-size="9.9626" font-family="RIYLUZ+CMR10" x="40.177 45.716206 49.621544 55.150787" y="-127.848 -127.848 -127.848 -127.848">
proj
</text>
<symbol id="font_0_4"><path d="M .14400001 .57000005 L .14400001 .63600004 L 0 .625 L 0 .594 C .07100001 .594 .07800001 .58800006 .07800001 .544 L .07800001 .076 C .07800001 .031000003 .067 .031000003 0 .031000003 L 0 0 C .034 .001000002 .08600001 .0029999912 .112 .0029999912 C .13900001 .0029999912 .19000001 .001000002 .22500002 0 L .22500002 .031000003 C .158 .031000003 .14700001 .031000003 .14700001 .076 L .14700001 .244 L .14700001 .25300002 C .15200001 .237 .19400002 .183 .27 .183 C .38900003 .183 .49300003 .28100002 .49300003 .41000003 C .49300003 .53700006 .39600003 .63600004 .284 .63600004 C .20600002 .63600004 .164 .592 .14400001 .57000005 M .14700001 .30800003 L .14700001 .531 C .17600001 .582 .22500002 .61100006 .27600002 .61100006 C .349 .61100006 .41000003 .523 .41000003 .41000003 C .41000003 .289 .34000003 .20500001 .266 .20500001 C .22600001 .20500001 .18800001 .22500001 .16100001 .266 C .14700001 .287 .14700001 .28800002 .14700001 .30800003 Z "/>
</symbol><symbol id="font_0_5"><path d="M .13900001 .33200002 L .13900001 .44200003 L 0 .43100002 L 0 .4 C .07000001 .4 .07800001 .393 .07800001 .344 L .07800001 .076000005 C .07800001 .031000001 .067 .031000001 0 .031000001 L 0 0 C .039 .001 .08600001 .003 .11400001 .003 C .15400001 .003 .20100002 .003 .24100003 0 L .24100003 .031000001 L .22000001 .031000001 C .14600001 .031000001 .14400001 .042000003 .14400001 .078 L .14400001 .23200001 C .14400001 .33100003 .18600002 .42000002 .26200002 .42000002 C .26900002 .42000002 .27100003 .42000002 .27300003 .41900003 C .27 .418 .25000003 .40600002 .25000003 .38000003 C .25000003 .35200003 .27100003 .337 .293 .337 C .31100002 .337 .33600003 .349 .33600003 .381 C .33600003 .41300002 .305 .44200003 .26200002 .44200003 C .18900001 .44200003 .15300001 .37500003 .13900001 .33200002 Z "/>
</symbol><symbol id="font_0_3"><path d="M .44300002 .22500002 C .44300002 .35300002 .34300002 .45900002 .222 .45900002 C .097 .45900002 0 .35000002 0 .22500002 C 0 .096 .104 0 .22100002 0 C .342 0 .44300002 .098000005 .44300002 .22500002 M .222 .025000002 C .17900002 .025000002 .135 .046 .10800001 .092 C .083000004 .136 .083000004 .19700001 .083000004 .23300003 C .083000004 .272 .083000004 .32600003 .10700001 .37000003 C .134 .41600004 .18100001 .43700004 .22100002 .43700004 C .26500002 .43700004 .30800003 .41500002 .33400002 .37200004 C .36 .32900003 .36 .27100003 .36 .23300003 C .36 .19700001 .36 .143 .33800003 .09900001 C .316 .054 .272 .025000002 .222 .025000002 Z "/>
</symbol><symbol id="font_0_2"><path d="M .25 .6470001 L .098000005 .63600004 L .098000005 .605 C .17500001 .605 .18400002 .59800005 .18400002 .549 L .18400002 .15300001 C .18400002 .10800001 .17500001 .022 .111 .022 C .106000006 .022 .083000004 .022 .057000004 .03500001 C .072000004 .039000005 .09200001 .053000003 .09200001 .08000001 C .09200001 .106000006 .074 .12600002 .046000004 .12600002 C .018000001 .12600002 0 .106000006 0 .08000001 C 0 .028000012 .056 0 .113000005 0 C .18800001 0 .25 .06400001 .25 .15500002 L .25 .6470001 M .25 .8210001 C .25 .85 .22600001 .8740001 .19700001 .8740001 C .16800001 .8740001 .14400001 .85 .14400001 .8210001 C .14400001 .79200006 .16800001 .768 .19700001 .768 C .22600001 .768 .25 .79200006 .25 .8210001 Z "/>
</symbol><use xlink:href="#font_0_4" transform="matrix(9.9626,0,0,-9.9626,40.455956,78.57675)"/>
<use xlink:href="#font_0_5" transform="matrix(9.9626,0,0,-9.9626,45.995163,76.644005)"/>
<use xlink:href="#font_0_3" transform="matrix(9.9626,0,0,-9.9626,49.9005,76.75359)"/>
<use xlink:href="#font_0_2" transform="matrix(9.9626,0,0,-9.9626,54.75229,78.68634)"/>
<text fill-opacity="0" transform="matrix(1,0,-0,1,.0000038146973,204.492)" font-size="6.9738" font-family="XLOABE+CMBX7" x="58.191998" y="-125.412">
f
</text>
<symbol id="font_1_1"><path d="M .20300002 .388 L .33100003 .388 L .33100003 .44400004 L .19600001 .44400004 L .19600001 .53800005 C .19600001 .555 .19600001 .65400004 .306 .65400004 C .31700003 .65400004 .31700003 .65300006 .31700003 .652 C .31700003 .651 .31600004 .64900005 .314 .647 C .31 .64100003 .302 .62600005 .302 .606 C .302 .558 .34100002 .537 .37 .537 C .403 .537 .439 .56 .439 .606 C .439 .652 .398 .70000005 .31300002 .70000005 C .19700001 .70000005 .083000004 .65300006 .083000004 .54 L .083000004 .44400004 L 0 .44400004 L 0 .388 L .083000004 .388 L .083000004 .056 L .016000003 .056 L .016000003 0 C .020000003 0 .097 .004 .14400001 .004 C .18300001 .004 .28000003 0 .287 0 L .287 .056 L .20300002 .056 L .20300002 .388 Z "/>
</symbol><use xlink:href="#font_1_1" transform="matrix(6.9738,0,0,-6.9738,58.554638,79.08)"/>
<text fill-opacity="0" transform="matrix(1,0,-0,1,.0000038146973,204.492)" font-size="4.9813" font-family="POWUVC+CMR5" x="60.971996" y="-124.416">
1
</text>
<symbol id="font_2_1"><path d="M .25500003 .63600004 C .25500003 .666 .252 .666 .21900001 .666 C .148 .60200006 .037 .60200006 .017000005 .60200006 L 0 .60200006 L 0 .558 L .017000005 .558 C .040000007 .558 .105000004 .56100005 .16300002 .586 L .16300002 .086 C .16300002 .055000003 .16300002 .044000003 .056999996 .044000003 L .0069999993 .044000003 L .0069999993 0 C .062000006 .004 .151 .004 .20900002 .004 C .26700002 .004 .356 .004 .411 0 L .411 .044000003 L .361 .044000003 C .25500003 .044000003 .25500003 .055000003 .25500003 .086 L .25500003 .63600004 Z "/>
</symbol><use xlink:href="#font_2_1" transform="matrix(4.9813,0,0,-4.9813,61.684326,80.076004)"/>
<text fill-opacity="0" transform="matrix(1,0,-0,1,.0000038146973,204.492)" font-size="9.9626" font-family="UQLIJL+CMBX10" x="65.35899" y="-127.848">
v
</text>
<symbol id="font_3_2"><path d="M .48000005 .38000003 C .48600003 .39400002 .49000004 .40100002 .554 .40100002 L .554 .44800004 C .529 .44600004 .5 .44500002 .47500005 .44500002 C .45000002 .44500002 .40500003 .44700003 .38400003 .44800004 L .38400003 .40100002 C .40300003 .40100002 .43200004 .39800003 .43200004 .39000002 C .43200004 .38900003 .43100002 .38700002 .42700002 .37800002 L .31100002 .128 L .18400002 .40100002 L .238 .40100002 L .238 .44800004 C .20500001 .44600004 .115 .44500002 .114 .44500002 C .086 .44500002 .041 .44700003 0 .44800004 L 0 .40100002 L .064 .40100002 L .23900002 .025000002 C .25100002 0 .26400003 0 .277 0 C .29400003 0 .30400002 .003 .314 .024000002 L .48000005 .38000003 Z "/>
</symbol><use xlink:href="#font_3_2" transform="matrix(9.9626,0,0,-9.9626,65.61802,76.68385)"/>
<text fill-opacity="0" transform="matrix(1,0,-0,1,.0000038146973,204.492)" font-size="6.9738" font-family="FYGEPU+CMR7" x="71.40499" y="-126.353">
2
</text>
<symbol id="font_4_2"><path d="M .442 .18200001 L .40800002 .18200001 C .40500003 .16000001 .39500004 .101 .38200003 .091000006 C .374 .085 .29700002 .085 .28300002 .085 L .099 .085 C .20400003 .178 .23900002 .20600002 .29900002 .25300002 C .37300003 .312 .442 .374 .442 .469 C .442 .59000003 .33600003 .66400003 .20800003 .66400003 C .084 .66400003 0 .577 0 .485 C 0 .43400002 .043000005 .42900002 .053000003 .42900002 C .077 .42900002 .10600001 .446 .10600001 .48200002 C .10600001 .5 .099 .535 .047000006 .535 C .078 .606 .146 .628 .19300002 .628 C .293 .628 .34500003 .55 .34500003 .469 C .34500003 .38200003 .28300002 .31300002 .25100002 .277 L .010000005 .039 C 0 .030000001 0 .028 0 0 L .41200003 0 L .442 .18200001 Z "/>
</symbol><use xlink:href="#font_4_2" transform="matrix(6.9738,0,0,-6.9738,71.844345,78.13901)"/>
<text fill-opacity="0" transform="matrix(1,0,-0,1,0,204.492)" font-size="9.9626" font-family="UQLIJL+CMBX10" x="127.054" y="-161.731">
f
</text>
<symbol id="font_3_1"><path d="M .075 .44400004 L 0 .44400004 L 0 .397 L .075 .397 L .075 .047000002 L .0059999973 .047000002 L .0059999973 0 C .041 .001 .086 .003 .132 .003 C .17000002 .003 .23400003 .003 .27 0 L .27 .047000002 L .183 .047000002 L .183 .397 L .298 .397 L .298 .44400004 L .17700002 .44400004 L .17700002 .545 C .17700002 .65500003 .25300002 .66400003 .27800003 .66400003 C .28300002 .66400003 .28800002 .66400003 .29500002 .66200006 C .28000003 .651 .272 .632 .272 .61300004 C .272 .57000005 .307 .551 .33300003 .551 C .36300004 .551 .395 .572 .395 .61300004 C .395 .65500003 .35900003 .70000005 .28100002 .70000005 C .183 .70000005 .075 .65800005 .075 .545 L .075 .44400004 Z "/>
</symbol><use xlink:href="#font_3_1" transform="matrix(9.9626,0,0,-9.9626,127.47243,42.761)"/>
<text fill-opacity="0" transform="matrix(1,0,-0,1,0,204.492)" font-size="6.9738" font-family="FYGEPU+CMR7" x="130.554" y="-160.237">
2
</text>
<use xlink:href="#font_4_2" transform="matrix(6.9738,0,0,-6.9738,130.99335,44.255005)"/>
<text fill-opacity="0" transform="matrix(1,0,-0,1,0,204.492)" font-size="9.9626" font-family="RIYLUZ+CMR10" x="137.791" y="-161.731">
=
</text>
<symbol id="font_0_1"><path d="M .63100004 .19400002 C .646 .19400002 .665 .19400002 .665 .214 C .665 .23400001 .646 .23400001 .632 .23400001 L .033 .23400001 C .019000001 .23400001 0 .23400001 0 .214 C 0 .19400002 .019000001 .19400002 .034 .19400002 L .63100004 .19400002 M .632 0 C .646 0 .665 0 .665 .02000001 C .665 .040000007 .646 .040000007 .63100004 .040000007 L .034 .040000007 C .019000001 .040000007 0 .040000007 0 .02000001 C 0 0 .019000001 0 .033 0 L .632 0 Z "/>
</symbol><use xlink:href="#font_0_1" transform="matrix(9.9626,0,0,-9.9626,138.3489,41.435974)"/>
<text fill-opacity="0" transform="matrix(1,0,-0,1,0,204.492)" font-size="9.9626" font-family="UQLIJL+CMBX10" x="148.307" y="-161.731">
v
</text>
<use xlink:href="#font_3_2" transform="matrix(9.9626,0,0,-9.9626,148.56604,42.800854)"/>
<text fill-opacity="0" transform="matrix(1,0,-0,1,0,204.492)" font-size="6.9738" font-family="FYGEPU+CMR7" x="154.354" y="-160.237">
2
</text>
<use xlink:href="#font_4_2" transform="matrix(6.9738,0,0,-6.9738,154.79335,44.255005)"/>
<text fill-opacity="0" transform="matrix(1,0,-0,1,0,204.492)" font-size="9.9626" font-family="FXXUVH+CMSY10" x="161.037" y="-161.731">
&#x2212;
</text>
<symbol id="font_5_1"><path d="M .57600003 0 C .59300005 0 .611 0 .611 .019999996 C .611 .040000007 .59300005 .040000007 .57600003 .040000007 L .035000004 .040000007 C .018 .040000007 0 .040000007 0 .019999996 C 0 0 .018 0 .035000004 0 L .57600003 0 Z "/>
</symbol><use xlink:href="#font_5_1" transform="matrix(9.9626,0,0,-9.9626,161.86389,40.469604)"/>
<text fill-opacity="0" transform="matrix(1,0,-0,1,0,204.492)" font-size="9.9626" font-family="RIYLUZ+CMR10" x="171 176.5392 180.44453 185.97377" y="-161.731 -161.731 -161.731 -161.731">
proj
</text>
<use xlink:href="#font_0_4" transform="matrix(9.9626,0,0,-9.9626,171.27895,44.693745)"/>
<use xlink:href="#font_0_5" transform="matrix(9.9626,0,0,-9.9626,176.81815,42.761)"/>
<use xlink:href="#font_0_3" transform="matrix(9.9626,0,0,-9.9626,180.72348,42.87059)"/>
<use xlink:href="#font_0_2" transform="matrix(9.9626,0,0,-9.9626,185.57527,44.803333)"/>
<text fill-opacity="0" transform="matrix(1,0,-0,1,0,204.492)" font-size="6.9738" font-family="XLOABE+CMBX7" x="189.016" y="-159.296">
f
</text>
<use xlink:href="#font_1_1" transform="matrix(6.9738,0,0,-6.9738,189.37865,45.196)"/>
<text fill-opacity="0" transform="matrix(1,0,-0,1,0,204.492)" font-size="4.9813" font-family="POWUVC+CMR5" x="191.79501" y="-158.29901">
1
</text>
<use xlink:href="#font_2_1" transform="matrix(4.9813,0,0,-4.9813,192.50734,46.192993)"/>
<text fill-opacity="0" transform="matrix(1,0,-0,1,0,204.492)" font-size="9.9626" font-family="UQLIJL+CMBX10" x="196.182" y="-161.73102">
v
</text>
<use xlink:href="#font_3_2" transform="matrix(9.9626,0,0,-9.9626,196.44104,42.80084)"/>
<text fill-opacity="0" transform="matrix(1,0,-0,1,0,204.492)" font-size="6.9738" font-family="FYGEPU+CMR7" x="202.22801" y="-160.23701">
2
</text>
<use xlink:href="#font_4_2" transform="matrix(6.9738,0,0,-6.9738,202.66736,44.25499)"/>
<text fill="rgb(255,0,0)" fill-opacity="0" transform="matrix(1,0,-0,1,0,204.492)" font-size="9.9626" font-family="UQLIJL+CMBX10" x="14.9279995" y="-65.519">
v
</text>
<use xlink:href="#font_3_2" transform="matrix(9.9626,0,0,-9.9626,15.187027,139.01286)" fill="rgb(255,0,0)"/>
<text fill="rgb(255,0,0)" fill-opacity="0" transform="matrix(1,0,-0,1,0,204.492)" font-size="6.9738" font-family="FYGEPU+CMR7" x="20.974998" y="-64.023994">
1
</text>
<symbol id="font_4_1"><path d="M .22600001 .63600004 C .22600001 .66300005 .224 .66400003 .19600001 .66400003 C .132 .601 .041 .6 0 .6 L 0 .564 C .023999996 .564 .09000001 .564 .14500001 .592 L .14500001 .082 C .14500001 .049000002 .14500001 .036000002 .04500001 .036000002 L .0069999993 .036000002 L .0069999993 0 C .024999999 .001 .148 .004 .185 .004 C .21600002 .004 .34200004 .001 .36400002 0 L .36400002 .036000002 L .32600003 .036000002 C .22600001 .036000002 .22600001 .049000002 .22600001 .082 L .22600001 .63600004 Z "/>
</symbol><use xlink:href="#font_4_1" transform="matrix(6.9738,0,0,-6.9738,21.735142,140.46802)" fill="rgb(255,0,0)"/>
<text fill="rgb(255,0,0)" fill-opacity="0" transform="matrix(1,0,-0,1,0,204.492)" font-size="9.9626" font-family="RIYLUZ+CMR10" x="28.211998" y="-65.519">
=
</text>
<use xlink:href="#font_0_1" transform="matrix(9.9626,0,0,-9.9626,28.769903,137.64798)" fill="rgb(255,0,0)"/>
<text fill="rgb(255,0,0)" fill-opacity="0" transform="matrix(1,0,-0,1,0,204.492)" font-size="9.9626" font-family="UQLIJL+CMBX10" x="38.727997" y="-65.519">
f
</text>
<use xlink:href="#font_3_1" transform="matrix(9.9626,0,0,-9.9626,39.146427,138.973)" fill="rgb(255,0,0)"/>
<text fill="rgb(255,0,0)" fill-opacity="0" transform="matrix(1,0,-0,1,0,204.492)" font-size="6.9738" font-family="FYGEPU+CMR7" x="42.228996" y="-64.023994">
1
</text>
<use xlink:href="#font_4_1" transform="matrix(6.9738,0,0,-6.9738,42.98914,140.46802)" fill="rgb(255,0,0)"/>
<text fill="rgb(0,0,255)" fill-opacity="0" transform="matrix(1,0,-0,1,0,204.492)" font-size="9.9626" font-family="UQLIJL+CMBX10" x="96.988" y="-73.567">
v
</text>
<use xlink:href="#font_3_2" transform="matrix(9.9626,0,0,-9.9626,97.247025,130.96486)" fill="rgb(0,0,255)"/>
<text fill="rgb(0,0,255)" fill-opacity="0" transform="matrix(1,0,-0,1,0,204.492)" font-size="6.9738" font-family="FYGEPU+CMR7" x="103.034996" y="-72.072">
2
</text>
<use xlink:href="#font_4_2" transform="matrix(6.9738,0,0,-6.9738,103.47434,132.42001)" fill="rgb(0,0,255)"/>
</svg>
